name Walk6.mot
datacolumns 19
datarows 27
range 2.42400000 2.45000000
endheader

                time	   L_ground_force_vx	   L_ground_force_vy	   L_ground_force_vz	   L_ground_force_px	   L_ground_force_py	   L_ground_force_pz	   R_ground_force_vx	   R_ground_force_vy	   R_ground_force_vz	   R_ground_force_px	   R_ground_force_py	   R_ground_force_pz	   L_ground_torque_x	   L_ground_torque_y	   L_ground_torque_z	   R_ground_torque_x	   R_ground_torque_y	   R_ground_torque_z	
          2.42400000	          6.13734348	         13.85975051	         -1.08352510	          0.25574130	          0.00000000	          0.10606452	          0.00000000	          0.00000000	          0.00000000	         -0.00000000	          0.00000000	          0.00000000	          0.00000000	          0.02843808	          0.00000000	          0.00000000	         -0.00000000	          0.00000000	
          2.42500000	          5.13016694	         11.52356510	         -1.01583837	          0.24268312	          0.00000000	          0.10070486	          0.00000000	          0.00000000	          0.00000000	         -0.00000000	          0.00000000	          0.00000000	          0.00000000	          0.02969254	          0.00000000	          0.00000000	         -0.00000000	          0.00000000	
          2.42600000	          4.18923903	          9.34246704	         -0.95006803	          0.22981817	          0.00000000	          0.09542036	          0.00000000	          0.00000000	          0.00000000	         -0.00000000	          0.00000000	          0.00000000	          0.00000000	          0.03072814	          0.00000000	          0.00000000	         -0.00000000	          0.00000000	
          2.42700000	          3.31248258	          7.31151201	         -0.88629967	          0.21717861	          0.00000000	          0.09022460	          0.00000000	          0.00000000	          0.00000000	         -0.00000000	          0.00000000	          0.00000000	          0.00000000	          0.03155957	          0.00000000	          0.00000000	         -0.00000000	          0.00000000	
          2.42800000	          2.49775451	          5.42560873	         -0.82460405	          0.20479306	          0.00000000	          0.08512967	          0.00000000	          0.00000000	          0.00000000	         -0.00000000	          0.00000000	          0.00000000	          0.00000000	          0.03220106	          0.00000000	          0.00000000	         -0.00000000	          0.00000000	
          2.42900000	          1.74285958	          3.67955069	         -0.76503805	          0.19268671	          0.00000000	          0.08014624	          0.00000000	          0.00000000	          0.00000000	         -0.00000000	          0.00000000	          0.00000000	          0.00000000	          0.03266632	          0.00000000	          0.00000000	         -0.00000000	          0.00000000	
          2.43000000	          1.04556311	          2.06804561	         -0.70764571	          0.18088157	          0.00000000	          0.07528367	          0.00000000	          0.00000000	          0.00000000	         -0.00000000	          0.00000000	          0.00000000	          0.00000000	          0.03296858	          0.00000000	          0.00000000	         -0.00000000	          0.00000000	
          2.43100000	          0.40360274	          0.58574274	         -0.65245907	          0.16939665	          0.00000000	          0.07055006	          0.00000000	          0.00000000	          0.00000000	         -0.00000000	          0.00000000	          0.00000000	          0.00000000	          0.03312057	          0.00000000	          0.00000000	         -0.00000000	          0.00000000	
          2.43200000	         -0.18530060	         -0.77274195	         -0.59949914	          0.15824812	          0.00000000	          0.06595232	          0.00000000	          0.00000000	          0.00000000	         -0.00000000	          0.00000000	          0.00000000	          0.00000000	          0.03313448	          0.00000000	          0.00000000	         -0.00000000	          0.00000000	
          2.43300000	         -0.72343272	         -2.01280260	         -0.54877671	          0.14744949	          0.00000000	          0.06149629	          0.00000000	          0.00000000	          0.00000000	         -0.00000000	          0.00000000	          0.00000000	          0.00000000	          0.03302200	          0.00000000	          0.00000000	         -0.00000000	          0.00000000	
          2.43400000	         -1.21307693	         -3.13982222	         -0.50029322	          0.13701183	          0.00000000	          0.05718675	          0.00000000	          0.00000000	          0.00000000	         -0.00000000	          0.00000000	          0.00000000	          0.00000000	          0.03279430	          0.00000000	          0.00000000	         -0.00000000	          0.00000000	
          2.43500000	         -1.65650560	         -4.15915328	         -0.45404151	          0.12694389	          0.00000000	          0.05302752	          0.00000000	          0.00000000	          0.00000000	         -0.00000000	          0.00000000	          0.00000000	          0.00000000	          0.03246203	          0.00000000	          0.00000000	         -0.00000000	          0.00000000	
          2.43600000	         -2.05597258	         -5.07610009	         -0.41000659	          0.11725228	          0.00000000	          0.04902156	          0.00000000	          0.00000000	          0.00000000	         -0.00000000	          0.00000000	          0.00000000	          0.00000000	          0.03203536	          0.00000000	          0.00000000	         -0.00000000	          0.00000000	
          2.43700000	         -2.41370617	         -5.89590286	         -0.36816638	          0.10794162	          0.00000000	          0.04517095	          0.00000000	          0.00000000	          0.00000000	         -0.00000000	          0.00000000	          0.00000000	          0.00000000	          0.03152390	          0.00000000	          0.00000000	         -0.00000000	          0.00000000	
          2.43800000	         -2.73190292	         -6.62372334	         -0.32849239	          0.09901470	          0.00000000	          0.04147705	          0.00000000	          0.00000000	          0.00000000	         -0.00000000	          0.00000000	          0.00000000	          0.00000000	          0.03093681	          0.00000000	          0.00000000	         -0.00000000	          0.00000000	
          2.43900000	         -3.01272203	         -7.26463199	         -0.29095035	          0.09047263	          0.00000000	          0.03794049	          0.00000000	          0.00000000	          0.00000000	         -0.00000000	          0.00000000	          0.00000000	          0.00000000	          0.03028273	          0.00000000	          0.00000000	         -0.00000000	          0.00000000	
          2.44000000	         -3.25828036	         -7.82359655	         -0.25550085	          0.08231498	          0.00000000	          0.03456125	          0.00000000	          0.00000000	          0.00000000	         -0.00000000	          0.00000000	          0.00000000	          0.00000000	          0.02956984	          0.00000000	          0.00000000	         -0.00000000	          0.00000000	
          2.44100000	         -3.47064801	         -8.30547207	         -0.22209994	          0.07453987	          0.00000000	          0.03133873	          0.00000000	          0.00000000	          0.00000000	         -0.00000000	          0.00000000	          0.00000000	          0.00000000	          0.02880582	          0.00000000	          0.00000000	         -0.00000000	          0.00000000	
          2.44200000	         -3.65184451	         -8.71499208	         -0.19069965	          0.06714416	          0.00000000	          0.02827178	          0.00000000	          0.00000000	          0.00000000	         -0.00000000	          0.00000000	          0.00000000	          0.00000000	          0.02799791	          0.00000000	          0.00000000	         -0.00000000	          0.00000000	
          2.44300000	         -3.80383546	         -9.05676107	         -0.16124854	          0.06012354	          0.00000000	          0.02535877	          0.00000000	          0.00000000	          0.00000000	         -0.00000000	          0.00000000	          0.00000000	          0.00000000	          0.02715289	          0.00000000	          0.00000000	         -0.00000000	          0.00000000	
          2.44400000	         -3.92852969	         -9.33524803	         -0.13369216	          0.05347266	          0.00000000	          0.02259760	          0.00000000	          0.00000000	          0.00000000	         -0.00000000	          0.00000000	          0.00000000	          0.00000000	          0.02627712	          0.00000000	          0.00000000	         -0.00000000	          0.00000000	
          2.44500000	         -4.02777690	         -9.55478115	         -0.10797355	          0.04718520	          0.00000000	          0.01998581	          0.00000000	          0.00000000	          0.00000000	         -0.00000000	          0.00000000	          0.00000000	          0.00000000	          0.02537651	          0.00000000	          0.00000000	         -0.00000000	          0.00000000	
          2.44600000	         -4.10336567	         -9.71954335	         -0.08403363	          0.04125402	          0.00000000	          0.01752057	          0.00000000	          0.00000000	          0.00000000	         -0.00000000	          0.00000000	          0.00000000	          0.00000000	          0.02445659	          0.00000000	          0.00000000	         -0.00000000	          0.00000000	
          2.44700000	         -4.15702190	         -9.83356889	         -0.06181164	          0.03567125	          0.00000000	          0.01519872	          0.00000000	          0.00000000	          0.00000000	         -0.00000000	          0.00000000	          0.00000000	          0.00000000	          0.02352246	          0.00000000	          0.00000000	         -0.00000000	          0.00000000	
          2.44800000	         -4.19040764	         -9.90074073	         -0.04124549	          0.03042835	          0.00000000	          0.01301685	          0.00000000	          0.00000000	          0.00000000	         -0.00000000	          0.00000000	          0.00000000	          0.00000000	          0.02257887	          0.00000000	          0.00000000	         -0.00000000	          0.00000000	
          2.44900000	         -4.20512020	         -9.92478875	         -0.02227210	          0.02551625	          0.00000000	          0.01097131	          0.00000000	          0.00000000	          0.00000000	         -0.00000000	          0.00000000	          0.00000000	          0.00000000	          0.02163019	          0.00000000	          0.00000000	         -0.00000000	          0.00000000	
          2.45000000	         -4.20269167	         -9.90928864	         -0.00482774	          0.02092537	          0.00000000	          0.00905823	          0.00000000	          0.00000000	          0.00000000	         -0.00000000	          0.00000000	          0.00000000	          0.00000000	          0.02068044	          0.00000000	          0.00000000	         -0.00000000	          0.00000000	
